<svg width="100" height="100" viewBox="0 0 100 100" fill="none" xmlns="http://www.w3.org/2000/svg">
  <rect width="100" height="100" fill="#5C5C5C" />
  <path
    d="M38.825 44.015C38.585 44.735 38.27 45.68 37.88 46.85C37.52 47.99 37.115 49.25 36.665 50.63C36.215 52.01 35.75 53.48 35.27 55.04C34.79 56.57 34.295 58.07 33.785 59.54C33.305 61.01 32.825 62.42 32.345 63.77C31.865 65.09 31.43 66.245 31.04 67.235C30.92 67.475 30.665 67.67 30.275 67.82C29.915 67.94 29.33 68 28.52 68C28.01 68 27.485 67.97 26.945 67.91C26.405 67.85 25.895 67.73 25.415 67.55C24.965 67.37 24.56 67.13 24.2 66.83C23.87 66.53 23.615 66.155 23.435 65.705C22.985 64.175 22.55 62.48 22.13 60.62C21.74 58.73 21.35 56.81 20.96 54.86C20.57 52.91 20.18 51.005 19.79 49.145C19.43 47.255 19.055 45.545 18.665 44.015C18.665 44.435 18.65 45.155 18.62 46.175C18.59 47.195 18.56 48.38 18.53 49.73C18.5 51.08 18.455 52.535 18.395 54.095C18.365 55.655 18.335 57.185 18.305 58.685C18.275 60.155 18.245 61.535 18.215 62.825C18.185 64.085 18.17 65.12 18.17 65.93C18.17 66.83 18.11 67.4 17.99 67.64C17.9 67.88 17.72 68 17.45 68H14.975C13.265 68 12.05 67.67 11.33 67.01C10.64 66.32 10.295 65.315 10.295 63.995C10.295 63.635 10.31 63.035 10.34 62.195C10.4 61.325 10.475 60.305 10.565 59.135C10.655 57.965 10.745 56.69 10.835 55.31C10.955 53.9 11.075 52.475 11.195 51.035C11.345 49.085 11.465 47.465 11.555 46.175C11.675 44.855 11.765 43.76 11.825 42.89C11.885 42.02 11.93 41.315 11.96 40.775C12.02 40.235 12.05 39.755 12.05 39.335C12.08 38.915 12.095 38.525 12.095 38.165C12.125 37.775 12.14 37.295 12.14 36.725C12.14 36.485 12.23 36.32 12.41 36.23C12.59 36.11 12.755 36.05 12.905 36.05H19.205C20.375 36.05 21.335 36.245 22.085 36.635C22.835 36.995 23.45 37.565 23.93 38.345C24.41 39.125 24.8 40.145 25.1 41.405C25.4 42.635 25.67 44.105 25.91 45.815C26.18 47.525 26.465 49.505 26.765 51.755C27.095 53.975 27.515 56.48 28.025 59.27C28.505 57.41 28.91 55.865 29.24 54.635C29.57 53.405 29.84 52.385 30.05 51.575C30.29 50.735 30.485 50.045 30.635 49.505C30.785 48.965 30.92 48.47 31.04 48.02C31.16 47.54 31.295 47.03 31.445 46.49C31.595 45.95 31.775 45.275 31.985 44.465C32.195 43.655 32.45 42.65 32.75 41.45C33.08 40.22 33.485 38.675 33.965 36.815C34.025 36.635 34.13 36.47 34.28 36.32C34.43 36.14 34.7 36.05 35.09 36.05H42.11C43.07 36.05 43.835 36.155 44.405 36.365C45.005 36.545 45.47 36.815 45.8 37.175C46.13 37.535 46.355 37.985 46.475 38.525C46.595 39.035 46.655 39.635 46.655 40.325C46.655 41.015 46.61 42.14 46.52 43.7C46.46 45.23 46.355 46.97 46.205 48.92C46.085 50.84 45.95 52.835 45.8 54.905C45.68 56.975 45.545 58.895 45.395 60.665C45.275 62.435 45.17 63.935 45.08 65.165C44.99 66.395 44.93 67.115 44.9 67.325C44.87 67.565 44.81 67.745 44.72 67.865C44.63 67.955 44.45 68 44.18 68H41.705C39.995 68 38.78 67.67 38.06 67.01C37.37 66.32 37.025 65.435 37.025 64.355C37.025 64.025 37.055 63.425 37.115 62.555C37.205 61.685 37.31 60.665 37.43 59.495C37.55 58.325 37.685 57.05 37.835 55.67C37.985 54.26 38.12 52.865 38.24 51.485C38.36 50.105 38.465 48.77 38.555 47.48C38.675 46.16 38.765 45.005 38.825 44.015ZM78.9291 61.295C79.2291 59.705 79.4991 58.325 79.7391 57.155C79.9791 55.955 80.1891 54.845 80.3691 53.825C80.5491 52.805 80.7141 51.8 80.8641 50.81C81.0441 49.79 81.2241 48.665 81.4041 47.435C81.6141 46.175 81.8391 44.75 82.0791 43.16C82.3491 41.54 82.6641 39.605 83.0241 37.355C83.1141 36.785 83.2641 36.425 83.4741 36.275C83.6841 36.095 84.2091 36.005 85.0491 36.005C85.3791 36.005 85.8741 36.035 86.5341 36.095C87.1941 36.125 87.8541 36.26 88.5141 36.5C89.1741 36.71 89.7441 37.055 90.2241 37.535C90.7341 37.985 90.9891 38.63 90.9891 39.47C90.9891 39.95 90.8991 40.7 90.7191 41.72C90.5391 42.71 90.2841 43.865 89.9541 45.185C89.6541 46.475 89.2941 47.885 88.8741 49.415C88.4841 50.945 88.0791 52.49 87.6591 54.05C87.2391 55.61 86.8041 57.125 86.3541 58.595C85.9341 60.065 85.5291 61.4 85.1391 62.6C84.7791 63.77 84.4491 64.76 84.1491 65.57C83.8491 66.38 83.6391 66.905 83.5191 67.145C83.3391 67.475 83.0841 67.7 82.7541 67.82C82.4241 67.94 82.0941 68 81.7641 68H77.4891C76.7091 68 76.0491 67.85 75.5091 67.55C74.9991 67.25 74.5641 66.86 74.2041 66.38C73.8741 65.9 73.6041 65.36 73.3941 64.76C73.2141 64.16 73.0941 63.545 73.0341 62.915L70.7841 42.71C70.6041 44.03 70.3941 45.515 70.1541 47.165C69.9441 48.815 69.7041 50.495 69.4341 52.205C69.1941 53.915 68.9541 55.595 68.7141 57.245C68.4741 58.895 68.2341 60.41 67.9941 61.79C67.7541 63.14 67.5291 64.295 67.3191 65.255C67.1091 66.215 66.9291 66.845 66.7791 67.145C66.6291 67.475 66.3891 67.7 66.0591 67.82C65.7291 67.94 65.3841 68 65.0241 68H60.7491C59.9991 68 59.3691 67.865 58.8591 67.595C58.3791 67.295 57.9741 66.905 57.6441 66.425C57.3141 65.945 57.0441 65.405 56.8341 64.805C56.6241 64.175 56.4441 63.545 56.2941 62.915C55.0641 58.025 54.0591 54.005 53.2791 50.855C52.5291 47.705 51.9291 45.185 51.4791 43.295C51.0291 41.375 50.7141 39.98 50.5341 39.11C50.3841 38.21 50.3091 37.565 50.3091 37.175C50.3091 36.665 50.4591 36.335 50.7591 36.185C51.0891 36.035 51.7641 35.96 52.7841 35.96C54.0441 35.96 55.0941 36.05 55.9341 36.23C56.8041 36.41 57.5091 36.695 58.0491 37.085C58.5891 37.445 58.9941 37.94 59.2641 38.57C59.5641 39.17 59.7591 39.905 59.8491 40.775C59.8491 40.895 59.8641 41.075 59.8941 41.315C59.9241 41.525 59.9541 41.885 59.9841 42.395C60.0441 42.905 60.1191 43.61 60.2091 44.51C60.3291 45.38 60.4641 46.55 60.6141 48.02C60.7941 49.49 61.0041 51.32 61.2441 53.51C61.5141 55.67 61.8291 58.265 62.1891 61.295C62.5191 59.465 62.7741 57.995 62.9541 56.885C63.1641 55.745 63.3441 54.755 63.4941 53.915C63.6441 53.045 63.7791 52.22 63.8991 51.44C64.0191 50.63 64.1541 49.64 64.3041 48.47C64.4841 47.27 64.6791 45.77 64.8891 43.97C65.1291 42.17 65.4291 39.83 65.7891 36.95C65.8191 36.74 65.9391 36.575 66.1491 36.455C66.3891 36.335 66.6741 36.245 67.0041 36.185C67.3341 36.125 67.6941 36.095 68.0841 36.095C68.5041 36.065 68.8941 36.05 69.2541 36.05C70.4541 36.05 71.4741 36.125 72.3141 36.275C73.1541 36.395 73.8441 36.62 74.3841 36.95C74.9541 37.28 75.4041 37.73 75.7341 38.3C76.0641 38.84 76.3341 39.515 76.5441 40.325C76.6341 40.715 76.7391 41.255 76.8591 41.945C76.9791 42.605 77.1141 43.67 77.2641 45.14C77.4441 46.61 77.6541 48.635 77.8941 51.215C78.1641 53.765 78.5091 57.125 78.9291 61.295Z"
    fill="white" />
</svg>