<svg width="80" height="80" viewBox="0 0 80 80" fill="none" xmlns="http://www.w3.org/2000/svg">
  <path
    d="M39.9611 0.131744C17.958 0.131744 0.120117 17.9692 0.120117 39.9723C0.120117 61.9763 17.958 79.8123 39.9611 79.8123C61.9666 79.8123 79.8026 61.9763 79.8026 39.9723C79.8026 17.9706 61.9671 0.131744 39.9611 0.131744ZM58.2319 57.5932C57.5183 58.7635 55.9864 59.1346 54.816 58.4163C45.4618 52.7025 33.6859 51.4084 19.8177 54.5769C18.4813 54.8814 17.1492 54.0441 16.8447 52.7072C16.5388 51.3704 17.3728 50.0382 18.7125 49.7338C33.8891 46.2665 46.9071 47.7594 57.4089 54.1773C58.5792 54.8957 58.9503 56.4228 58.2319 57.5932ZM63.1084 46.7451C62.2092 48.2066 60.2967 48.6681 58.8361 47.7689C48.1269 41.1864 31.8024 39.28 19.1355 43.1251C17.4927 43.6213 15.7576 42.6955 15.2591 41.0555C14.7643 39.4128 15.6906 37.681 17.3305 37.1815C31.7996 32.7912 49.7873 34.9179 62.0855 42.4752C63.5461 43.3744 64.0076 45.2864 63.1084 46.7451ZM63.527 35.4488C50.6865 27.822 29.5012 27.1207 17.2415 30.8416C15.2729 31.4387 13.191 30.3273 12.5944 28.3587C11.9978 26.389 13.1082 24.3086 15.0783 23.7101C29.1515 19.4378 52.5467 20.2632 67.3302 29.0395C69.1048 30.0904 69.6852 32.3773 68.6338 34.1457C67.5871 35.9165 65.2921 36.5002 63.527 35.4488Z"
    fill="#484C4F" />
</svg>