<svg width="100" height="101" viewBox="0 0 100 101" fill="none" xmlns="http://www.w3.org/2000/svg">
  <path
    d="M42.9999 22.7766C43.3081 22.7766 43.6132 22.7157 43.8977 22.5975C44.1823 22.4793 44.4407 22.306 44.6581 22.0877C44.8755 21.8693 45.0477 21.6102 45.1647 21.3251C45.2817 21.04 45.3413 20.7347 45.3399 20.4266V15.7366C45.3399 15.1159 45.0934 14.5208 44.6546 14.0819C44.2157 13.6431 43.6205 13.3966 42.9999 13.3966C42.3793 13.3966 41.7841 13.6431 41.3453 14.0819C40.9065 14.5208 40.6599 15.1159 40.6599 15.7366V20.4266C40.6586 20.7347 40.7182 21.04 40.8352 21.3251C40.9522 21.6102 41.1243 21.8693 41.3418 22.0877C41.5592 22.306 41.8176 22.4793 42.1021 22.5975C42.3867 22.7157 42.6918 22.7766 42.9999 22.7766V22.7766Z"
    fill="#1C1C1C" />
  <path
    d="M61.2001 28.9466L64.5101 25.6366C64.7281 25.4192 64.9011 25.1611 65.0194 24.8769C65.1376 24.5926 65.1987 24.2879 65.1992 23.9801C65.1996 23.6723 65.1395 23.3674 65.0221 23.0828C64.9047 22.7982 64.7324 22.5395 64.5151 22.3216C64.2978 22.1036 64.0396 21.9305 63.7554 21.8123C63.4712 21.6941 63.1665 21.633 62.8586 21.6325C62.5508 21.632 62.2459 21.6922 61.9613 21.8096C61.6768 21.9269 61.4181 22.0992 61.2001 22.3166L57.8801 25.6366C57.4412 26.0768 57.1951 26.6734 57.196 27.2951C57.197 27.9168 57.4448 28.5126 57.8851 28.9516C58.3254 29.3905 58.922 29.6366 59.5436 29.6356C60.1653 29.6347 60.7612 29.3868 61.2001 28.9466V28.9466Z"
    fill="#1C1C1C" />
  <path
    d="M14.85 46.2066H19.53C20.1506 46.2066 20.7458 45.96 21.1846 45.5212C21.6235 45.0823 21.87 44.4872 21.87 43.8666C21.87 43.2459 21.6235 42.6508 21.1846 42.2119C20.7458 41.7731 20.1506 41.5266 19.53 41.5266H14.85C14.2294 41.5266 13.6342 41.7731 13.1954 42.2119C12.7565 42.6508 12.51 43.2459 12.51 43.8666C12.51 44.4872 12.7565 45.0823 13.1954 45.5212C13.6342 45.96 14.2294 46.2066 14.85 46.2066V46.2066Z"
    fill="#1C1C1C" />
  <path
    d="M64.0601 43.8966C64.0627 44.5181 64.3115 45.1132 64.7519 45.5518C65.1923 45.9903 65.7885 46.2366 66.4101 46.2366H71.0901C71.7107 46.2366 72.3059 45.99 72.7447 45.5512C73.1835 45.1123 73.4301 44.5172 73.4301 43.8966C73.4301 43.2759 73.1835 42.6808 72.7447 42.2419C72.3059 41.8031 71.7107 41.5566 71.0901 41.5566H66.4101C66.1019 41.5552 65.7966 41.6148 65.5115 41.7318C65.2265 41.8488 64.9673 42.021 64.749 42.2384C64.5306 42.4558 64.3574 42.7142 64.2391 42.9988C64.1209 43.2833 64.0601 43.5884 64.0601 43.8966Z"
    fill="#1C1C1C" />
  <path
    d="M24.74 28.9466C25.1789 29.3855 25.7742 29.6321 26.395 29.6321C27.0157 29.6321 27.611 29.3855 28.05 28.9466C28.4889 28.5076 28.7355 27.9123 28.7355 27.2916C28.7355 26.6708 28.4889 26.0755 28.05 25.6366L24.74 22.3166C24.5258 22.0821 24.2663 21.8934 23.9772 21.762C23.6881 21.6306 23.3754 21.5592 23.0579 21.552C22.7405 21.5448 22.4248 21.602 22.1301 21.7202C21.8354 21.8384 21.5676 22.0151 21.3431 22.2397C21.1185 22.4642 20.9418 22.732 20.8236 23.0267C20.7054 23.3214 20.6482 23.6371 20.6554 23.9546C20.6626 24.272 20.734 24.5848 20.8654 24.8738C20.9968 25.1629 21.1855 25.4224 21.42 25.6366L24.74 28.9466Z"
    fill="#1C1C1C" />
  <path
    d="M71.0899 50.8966C70.3166 50.8936 69.5443 50.9504 68.7799 51.0666C66.3536 47.7619 63.0969 45.1573 59.3399 43.5166C59.2895 39.1697 57.5144 35.0208 54.405 31.9827C51.2957 28.9446 47.1068 27.2662 42.7599 27.3166C38.413 27.3669 34.2641 29.1421 31.226 32.2514C28.188 35.3608 26.5095 39.5497 26.5599 43.8966C26.5738 46.358 27.152 48.7835 28.2499 50.9866C23.9488 51.1348 19.8788 52.9698 16.9198 56.0949C13.9609 59.22 12.3507 63.3841 12.4374 67.6869C12.5241 71.9897 14.3008 76.0855 17.3832 79.0888C20.4657 82.0922 24.6063 83.7617 28.9099 83.7366C30.8991 83.7396 32.8718 83.3769 34.7299 82.6666C38.952 86.3798 44.3822 88.4279 50.0049 88.4279C55.6276 88.4279 61.0577 86.3798 65.2799 82.6666C67.1344 83.377 69.1039 83.7397 71.0899 83.7366C73.2783 83.7906 75.4554 83.4062 77.493 82.6061C79.5306 81.8059 81.3875 80.6062 82.9545 79.0775C84.5214 77.5488 85.7666 75.7221 86.6168 73.7048C87.467 71.6876 87.9049 69.5206 87.9049 67.3316C87.9049 65.1425 87.467 62.9755 86.6168 60.9583C85.7666 58.941 84.5214 57.1143 82.9545 55.5856C81.3875 54.0569 79.5306 52.8572 77.493 52.057C75.4554 51.2569 73.2783 50.8725 71.0899 50.9266V50.8966ZM42.9999 32.1466C45.7737 32.1571 48.4534 33.1536 50.5602 34.958C52.6669 36.7625 54.0633 39.2573 54.4999 41.9966C50.5365 41.1808 46.4277 41.4292 42.5915 42.7168C38.7554 44.0043 35.3286 46.2849 32.6599 49.3266C31.7527 47.6592 31.2685 45.7947 31.2499 43.8966C31.2459 42.3524 31.5471 40.8227 32.1362 39.3953C32.7253 37.968 33.5907 36.6711 34.6826 35.5792C35.7744 34.4873 37.0713 33.622 38.4987 33.0329C39.926 32.4438 41.4557 32.1426 42.9999 32.1466V32.1466ZM71.0899 79.0266C68.6804 79.0283 66.3295 78.2843 64.3599 76.8966C62.6232 79.0307 60.4329 80.7511 57.9481 81.9327C55.4632 83.1143 52.7463 83.7274 49.9949 83.7274C47.2434 83.7274 44.5265 83.1143 42.0417 81.9327C39.5568 80.7511 37.3665 79.0307 35.6299 76.8966C34.1239 77.9552 32.3896 78.6438 30.5676 78.9066C28.7456 79.1694 26.8874 78.999 25.1436 78.4091C23.3998 77.8193 21.8197 76.8266 20.5314 75.5117C19.2431 74.1968 18.283 72.5967 17.7289 70.8413C17.1748 69.0858 17.0424 67.2245 17.3424 65.4083C17.6423 63.5921 18.3663 61.8722 19.4554 60.3881C20.5446 58.9041 21.9683 57.6977 23.611 56.8669C25.2536 56.0362 27.0691 55.6043 28.9099 55.6066C30.0095 55.6207 31.1011 55.7959 32.1499 56.1266C32.5639 56.2241 32.9714 56.3477 33.3699 56.4966C34.9564 53.4412 37.3396 50.8718 40.2672 49.0604C43.1947 47.2489 46.5577 46.2628 49.9999 46.2066C51.4465 46.2206 52.8865 46.4052 54.2899 46.7566C55.812 47.1144 57.2811 47.6691 58.6599 48.4066C62.0924 50.2107 64.8857 53.0285 66.6599 56.4766C68.2618 55.8139 69.9908 55.5149 71.7222 55.6011C73.4536 55.6872 75.1444 56.1564 76.6726 56.9748C78.2008 57.7932 79.5285 58.9404 80.5599 60.3338C81.5912 61.7272 82.3007 63.332 82.637 65.0326C82.9734 66.7332 82.9283 68.4873 82.505 70.1684C82.0817 71.8495 81.2907 73.4157 80.1891 74.7543C79.0874 76.0928 77.7026 77.1703 76.1343 77.909C74.5661 78.6478 72.8534 79.0295 71.1199 79.0266H71.0899Z"
    fill="#1C1C1C" />
</svg>